<svg xmlns="http://www.w3.org/2000/svg" viewBox="0 0 64 64" role="img" aria-label="CNC">
  <rect width="64" height="64" rx="14" fill="#00247D"/>
  <path d="M19.4 39.3c-4.1 0-7.4-3.1-7.4-7.3s3.3-7.3 7.4-7.3c2 0 3.8.7 5.2 2l-2.2 2.3c-.8-.7-1.8-1.1-3-1.1-2.3 0-4.1 1.7-4.1 4.1s1.8 4.1 4.1 4.1c1.2 0 2.2-.4 3-1.1l2.2 2.3c-1.4 1.3-3.2 2-5.2 2z" fill="#FFFFFF"/>
  <path d="M27.7 39V25h3.1l6.1 8.4V25h3.1v14h-3.1l-6.1-8.4V39h-3.1z" fill="#FFFFFF"/>
  <path d="M51.4 39.3c-4.1 0-7.4-3.1-7.4-7.3s3.3-7.3 7.4-7.3c2 0 3.8.7 5.2 2L54.4 30c-.8-.7-1.8-1.1-3-1.1-2.3 0-4.1 1.7-4.1 4.1s1.8 4.1 4.1 4.1c1.2 0 2.2-.4 3-1.1l2.2 2.3c-1.4 1.3-3.2 2-5.2 2z" fill="#AD841F"/>
</svg>
